<svg width="114" height="119" viewBox="0 0 114 119" fill="none" xmlns="http://www.w3.org/2000/svg">
<g opacity="0.64" clip-path="url(#clip0_1_25)" filter="url(#filter0_d_1_25)">
<path d="M106.772 41.2579C108.108 48.9756 99.9123 46.92 99.9123 46.92C96.4822 37.2547 90.9941 38.1563 90.9941 38.1563C95.2907 41.2939 95.6157 43.9627 95.6157 43.9627C84.17 35.8482 68.6082 42.3759 62.6868 45.4413C59.365 40.753 52.6493 30.2582 55.0323 25.4977C58.1735 19.2586 64.5643 22.8289 64.5643 22.8289C77.4904 22.6126 76.7682 17.9963 76.7682 17.9963C73.3382 20.6651 63.2284 17.9963 63.2284 17.9963C72.0022 17.9963 75.7212 14.4259 75.7212 14.4259C69.1859 16.0488 61.8925 9.08839 61.8925 9.08839C59.2206 -4.58003 46.8723 1.22635 46.8723 1.22635C54.599 -0.108037 52.541 8.07859 52.541 8.07859C42.8645 11.5047 43.7672 16.9865 43.7672 16.9865C46.9084 12.6948 49.5803 12.3703 49.5803 12.3703C40.7343 24.8125 49.2553 42.1234 51.7828 46.6315C47.1612 49.8412 36.3293 56.9098 31.455 54.4574C25.2086 51.3198 28.7831 44.9364 28.7831 44.9364C28.6387 32.0254 24.0171 32.7467 24.0171 32.7467C26.6889 36.1728 24.0171 46.2708 24.0171 46.2708C24.0171 37.5072 20.4426 33.7925 20.4426 33.7925C22.0674 40.3202 15.0989 47.6052 15.0989 47.6052C1.41461 50.274 7.2277 62.608 7.2277 62.608C5.89178 54.8902 14.0879 56.9459 14.0879 56.9459C17.518 66.6111 23.0061 65.7095 23.0061 65.7095C18.7095 62.5719 18.3845 59.9032 18.3845 59.9032C30.4801 68.4865 47.1973 60.6966 52.2521 57.9557C55.6461 62.8244 61.9647 72.8503 59.6178 77.5026C56.4766 83.7417 50.0858 80.1714 50.0858 80.1714C37.1597 80.3156 37.8819 84.9319 37.8819 84.9319C41.312 82.2631 51.4217 84.9319 51.4217 84.9319C42.6479 84.9319 38.9289 88.5023 38.9289 88.5023C45.4642 86.8793 52.7576 93.8398 52.7576 93.8398C55.4295 107.508 67.7778 101.702 67.7778 101.702C60.0511 103.036 62.1091 94.8496 62.1091 94.8496C71.7856 91.4235 70.8829 85.9417 70.8829 85.9417C67.7417 90.2333 65.0698 90.5579 65.0698 90.5579C73.7353 78.4042 65.7558 61.5621 63.0479 56.6213C67.9583 53.1952 77.8875 47.0642 82.473 49.3723C88.7194 52.51 85.1449 58.8934 85.1449 58.8934C85.2893 71.8044 89.9109 71.0831 89.9109 71.0831C87.239 67.657 89.9109 57.559 89.9109 57.559C89.9109 66.3226 93.4854 70.0373 93.4854 70.0373C91.8606 63.5096 98.8291 56.2246 98.8291 56.2246C112.586 53.5919 106.772 41.2579 106.772 41.2579Z" fill="url(#paint0_linear_1_25)"/>
</g>
<defs>
<filter id="filter0_d_1_25" x="0" y="0" width="114" height="119" filterUnits="userSpaceOnUse" color-interpolation-filters="sRGB">
<feFlood flood-opacity="0" result="BackgroundImageFix"/>
<feColorMatrix in="SourceAlpha" type="matrix" values="0 0 0 0 0 0 0 0 0 0 0 0 0 0 0 0 0 0 127 0" result="hardAlpha"/>
<feOffset dy="10"/>
<feGaussianBlur stdDeviation="3"/>
<feComposite in2="hardAlpha" operator="out"/>
<feColorMatrix type="matrix" values="0 0 0 0 0 0 0 0 0 0 0 0 0 0 0 0 0 0 0.25 0"/>
<feBlend mode="normal" in2="BackgroundImageFix" result="effect1_dropShadow_1_25"/>
<feBlend mode="normal" in="SourceGraphic" in2="effect1_dropShadow_1_25" result="shape"/>
</filter>
<linearGradient id="paint0_linear_1_25" x1="56.9966" y1="0.0012207" x2="56.9966" y2="102.927" gradientUnits="userSpaceOnUse">
<stop stop-color="#C0B7E8"/>
<stop offset="1" stop-color="#8176AF"/>
</linearGradient>
<clipPath id="clip0_1_25">
<rect width="102" height="103" fill="white" transform="translate(6)"/>
</clipPath>
</defs>
</svg>
